# xmcd
#
# Track frame offsets:
#	150
#	19139
#	38697
#	60222
#	89907
#	122649
#	140174
#	161745
#	180260
#	206420
#	217881
#	234730
#	262243
#	285043
#	305516
#
# Disc length: 4328 seconds
#
# Revision: 1
# Processed by: cddbd v1.5.2PL0 Copyright (c) Steve Scherf et al.
# Submitted via: audiograbber 1.83.01
#
DISCID=d110e60f
DTITLE=Various Artist - nu soul - cd 1
DYEAR=2007
DGENRE=Soul
TTITLE0=Terry Callier and Paul Weller - Brother To Brother
TTITLE1=Raphael Saadiq - Grown Folks
TTITLE2=Carleen Anderson - All In My Mind
TTITLE3=Nightmares On Wax - I Am You
TTITLE4=Quantic feat. Alice Russell - So Long
TTITLE5=Breakestra - Hiding (Quantic Soul Orchestra Remix)
TTITLE6=PPP and Tiombe Lockhart - I Got You
TTITLE7=The Bamboos feat. Kylie Auldist - I Don't Wanna Stop
TTITLE8=Shaun Escoffery - Hercules
TTITLE9=Jazzanova feat. Capitol A - Rendezvous
TTITLE10=Oneself - Bluebird
TTITLE11=Ursula Rucker - Uh Uh
TTITLE12=Larry Gold feat. Floetry - And I Hope
TTITLE13=Owusu and Hannibal - Blue Jay
TTITLE14=The Dining Rooms - Diamonds and Comforts
EXTD=
EXTT0=
EXTT1=
EXTT2=
EXTT3=
EXTT4=
EXTT5=
EXTT6=
EXTT7=
EXTT8=
EXTT9=
EXTT10=
EXTT11=
EXTT12=
EXTT13=
EXTT14=
PLAYORDER=
